<mxfile host="app.diagrams.net" modified="2022-11-25T13:52:31.854Z" agent="5.0 (Macintosh)" etag="YHssGD6DLTGCtj7cw06_" version="20.4.0" type="github">
  <diagram id="PDvZyFRzMYHTwVUq79jL" name="Page-1">
    <mxGraphModel dx="1236" dy="795" grid="1" gridSize="10" guides="1" tooltips="1" connect="1" arrows="1" fold="1" page="1" pageScale="1" pageWidth="827" pageHeight="1169" math="0" shadow="0">
      <root>
        <mxCell id="0" />
        <mxCell id="1" parent="0" />
        <mxCell id="XHL3a4u6kP5xgGt7L1TX-1" value="&lt;div&gt;Etudiant&lt;/div&gt;" style="shape=umlActor;verticalLabelPosition=bottom;verticalAlign=top;html=1;" parent="1" vertex="1">
          <mxGeometry x="50" y="470" width="30" height="60" as="geometry" />
        </mxCell>
        <mxCell id="XHL3a4u6kP5xgGt7L1TX-2" value="Tableau de bord" style="swimlane;" parent="1" vertex="1">
          <mxGeometry x="140" y="180" width="870" height="1290" as="geometry">
            <mxRectangle x="190" y="220" width="90" height="30" as="alternateBounds" />
          </mxGeometry>
        </mxCell>
        <mxCell id="XHL3a4u6kP5xgGt7L1TX-3" value="Messagerie" style="swimlane;startSize=23;" parent="XHL3a4u6kP5xgGt7L1TX-2" vertex="1">
          <mxGeometry x="50" y="50" width="620" height="250" as="geometry" />
        </mxCell>
        <mxCell id="XHL3a4u6kP5xgGt7L1TX-4" value="Envoyer message" style="ellipse;whiteSpace=wrap;html=1;" parent="XHL3a4u6kP5xgGt7L1TX-3" vertex="1">
          <mxGeometry x="70" y="40" width="140" height="70" as="geometry" />
        </mxCell>
        <mxCell id="XHL3a4u6kP5xgGt7L1TX-5" value="&lt;div&gt;Lire message&lt;/div&gt;" style="ellipse;whiteSpace=wrap;html=1;" parent="XHL3a4u6kP5xgGt7L1TX-3" vertex="1">
          <mxGeometry x="70" y="140" width="140" height="70" as="geometry" />
        </mxCell>
        <mxCell id="XHL3a4u6kP5xgGt7L1TX-6" value="Retards" style="swimlane;" parent="XHL3a4u6kP5xgGt7L1TX-2" vertex="1">
          <mxGeometry x="50" y="330" width="620" height="150" as="geometry" />
        </mxCell>
        <mxCell id="XHL3a4u6kP5xgGt7L1TX-7" value="Voir retards de ses moyens de transport" style="ellipse;whiteSpace=wrap;html=1;" parent="XHL3a4u6kP5xgGt7L1TX-6" vertex="1">
          <mxGeometry x="70" y="49" width="140" height="70" as="geometry" />
        </mxCell>
        <mxCell id="XHL3a4u6kP5xgGt7L1TX-8" value="Voir durée totale des retards de ses moyens de transport" style="ellipse;whiteSpace=wrap;html=1;" parent="XHL3a4u6kP5xgGt7L1TX-6" vertex="1">
          <mxGeometry x="420" y="49" width="140" height="70" as="geometry" />
        </mxCell>
        <mxCell id="XHL3a4u6kP5xgGt7L1TX-9" value="Billets" style="swimlane;" parent="XHL3a4u6kP5xgGt7L1TX-2" vertex="1">
          <mxGeometry x="50" y="510" width="620" height="150" as="geometry" />
        </mxCell>
        <mxCell id="XHL3a4u6kP5xgGt7L1TX-10" value="&lt;div&gt;Consulter ses billets&lt;/div&gt;" style="ellipse;whiteSpace=wrap;html=1;" parent="XHL3a4u6kP5xgGt7L1TX-9" vertex="1">
          <mxGeometry x="240" y="50" width="140" height="70" as="geometry" />
        </mxCell>
        <mxCell id="XHL3a4u6kP5xgGt7L1TX-11" value="Compte" style="swimlane;" parent="XHL3a4u6kP5xgGt7L1TX-2" vertex="1">
          <mxGeometry x="50" y="690" width="780" height="200" as="geometry" />
        </mxCell>
        <mxCell id="XHL3a4u6kP5xgGt7L1TX-12" value="Gerer trajet" style="ellipse;whiteSpace=wrap;html=1;" parent="XHL3a4u6kP5xgGt7L1TX-11" vertex="1">
          <mxGeometry x="220" y="40" width="140" height="70" as="geometry" />
        </mxCell>
        <mxCell id="XHL3a4u6kP5xgGt7L1TX-13" value="Se déconnecter" style="ellipse;whiteSpace=wrap;html=1;" parent="XHL3a4u6kP5xgGt7L1TX-11" vertex="1">
          <mxGeometry x="450" y="40" width="140" height="70" as="geometry" />
        </mxCell>
        <mxCell id="ni4odCAu_Rry0bKGbHOj-1" value="&lt;div&gt;Ajouter trajet&lt;/div&gt;" style="ellipse;whiteSpace=wrap;html=1;" vertex="1" parent="XHL3a4u6kP5xgGt7L1TX-11">
          <mxGeometry x="430" y="130" width="100" height="50" as="geometry" />
        </mxCell>
        <mxCell id="ni4odCAu_Rry0bKGbHOj-2" value="&amp;lt;&amp;lt;extend&amp;gt;&amp;gt;" style="html=1;verticalAlign=bottom;labelBackgroundColor=none;endArrow=open;endFill=0;dashed=1;rounded=0;" edge="1" parent="XHL3a4u6kP5xgGt7L1TX-11" source="ni4odCAu_Rry0bKGbHOj-1" target="XHL3a4u6kP5xgGt7L1TX-12">
          <mxGeometry width="160" relative="1" as="geometry">
            <mxPoint x="380" y="190" as="sourcePoint" />
            <mxPoint x="540" y="190" as="targetPoint" />
          </mxGeometry>
        </mxCell>
        <mxCell id="ni4odCAu_Rry0bKGbHOj-3" value="Modifier trajet" style="ellipse;whiteSpace=wrap;html=1;" vertex="1" parent="XHL3a4u6kP5xgGt7L1TX-11">
          <mxGeometry x="310" y="140" width="100" height="50" as="geometry" />
        </mxCell>
        <mxCell id="ni4odCAu_Rry0bKGbHOj-4" value="&amp;lt;&amp;lt;extend&amp;gt;&amp;gt;" style="html=1;verticalAlign=bottom;labelBackgroundColor=none;endArrow=open;endFill=0;dashed=1;rounded=0;" edge="1" parent="XHL3a4u6kP5xgGt7L1TX-11" source="ni4odCAu_Rry0bKGbHOj-3" target="XHL3a4u6kP5xgGt7L1TX-12">
          <mxGeometry width="160" relative="1" as="geometry">
            <mxPoint x="451.7598299848337" y="148.89340665122063" as="sourcePoint" />
            <mxPoint x="353.54378386819315" y="107.54475110239719" as="targetPoint" />
          </mxGeometry>
        </mxCell>
        <mxCell id="XHL3a4u6kP5xgGt7L1TX-14" value="Details" style="swimlane;" parent="XHL3a4u6kP5xgGt7L1TX-2" vertex="1">
          <mxGeometry x="50" y="920" width="620" height="200" as="geometry" />
        </mxCell>
        <mxCell id="XHL3a4u6kP5xgGt7L1TX-15" value="&lt;div&gt;Voir camarades de classe&lt;/div&gt;" style="ellipse;whiteSpace=wrap;html=1;" parent="XHL3a4u6kP5xgGt7L1TX-14" vertex="1">
          <mxGeometry x="230" y="50" width="120" height="60" as="geometry" />
        </mxCell>
        <mxCell id="XHL3a4u6kP5xgGt7L1TX-16" value="&lt;div&gt;Voir prochain cours&lt;/div&gt;" style="ellipse;whiteSpace=wrap;html=1;" parent="XHL3a4u6kP5xgGt7L1TX-14" vertex="1">
          <mxGeometry x="150" y="120" width="120" height="60" as="geometry" />
        </mxCell>
        <mxCell id="XHL3a4u6kP5xgGt7L1TX-17" value="" style="endArrow=none;html=1;rounded=0;" parent="1" source="XHL3a4u6kP5xgGt7L1TX-1" target="XHL3a4u6kP5xgGt7L1TX-4" edge="1">
          <mxGeometry width="50" height="50" relative="1" as="geometry">
            <mxPoint x="500" y="530" as="sourcePoint" />
            <mxPoint x="550" y="480" as="targetPoint" />
          </mxGeometry>
        </mxCell>
        <mxCell id="XHL3a4u6kP5xgGt7L1TX-18" value="" style="endArrow=none;html=1;rounded=0;" parent="1" source="XHL3a4u6kP5xgGt7L1TX-1" target="XHL3a4u6kP5xgGt7L1TX-5" edge="1">
          <mxGeometry width="50" height="50" relative="1" as="geometry">
            <mxPoint x="120" y="369.17130691881664" as="sourcePoint" />
            <mxPoint x="310.3823972090904" y="358.65340189573294" as="targetPoint" />
          </mxGeometry>
        </mxCell>
        <mxCell id="XHL3a4u6kP5xgGt7L1TX-19" value="" style="endArrow=none;html=1;rounded=0;" parent="1" source="XHL3a4u6kP5xgGt7L1TX-1" target="XHL3a4u6kP5xgGt7L1TX-7" edge="1">
          <mxGeometry width="50" height="50" relative="1" as="geometry">
            <mxPoint x="90" y="507.28742903261013" as="sourcePoint" />
            <mxPoint x="310" y="720" as="targetPoint" />
          </mxGeometry>
        </mxCell>
        <mxCell id="XHL3a4u6kP5xgGt7L1TX-20" value="" style="endArrow=none;html=1;rounded=0;" parent="1" source="XHL3a4u6kP5xgGt7L1TX-1" target="XHL3a4u6kP5xgGt7L1TX-13" edge="1">
          <mxGeometry width="50" height="50" relative="1" as="geometry">
            <mxPoint x="90" y="517.6161944872872" as="sourcePoint" />
            <mxPoint x="350.86690918224076" y="650.0704021959152" as="targetPoint" />
          </mxGeometry>
        </mxCell>
        <mxCell id="XHL3a4u6kP5xgGt7L1TX-21" value="" style="endArrow=none;html=1;rounded=0;" parent="1" source="XHL3a4u6kP5xgGt7L1TX-1" target="XHL3a4u6kP5xgGt7L1TX-8" edge="1">
          <mxGeometry width="50" height="50" relative="1" as="geometry">
            <mxPoint x="90" y="524.4518034948387" as="sourcePoint" />
            <mxPoint x="317.7969832876636" y="743.9236194408647" as="targetPoint" />
          </mxGeometry>
        </mxCell>
        <mxCell id="XHL3a4u6kP5xgGt7L1TX-22" value="" style="endArrow=none;html=1;rounded=0;" parent="1" source="XHL3a4u6kP5xgGt7L1TX-1" target="XHL3a4u6kP5xgGt7L1TX-10" edge="1">
          <mxGeometry width="50" height="50" relative="1" as="geometry">
            <mxPoint x="85.15070279926613" y="540" as="sourcePoint" />
            <mxPoint x="288.3304777936048" y="1140.4897759661405" as="targetPoint" />
          </mxGeometry>
        </mxCell>
        <mxCell id="XHL3a4u6kP5xgGt7L1TX-23" value="" style="endArrow=none;html=1;rounded=0;" parent="1" source="XHL3a4u6kP5xgGt7L1TX-1" target="XHL3a4u6kP5xgGt7L1TX-12" edge="1">
          <mxGeometry width="50" height="50" relative="1" as="geometry">
            <mxPoint x="89.68875377143718" y="540" as="sourcePoint" />
            <mxPoint x="293.3735934389813" y="956.0016081084107" as="targetPoint" />
          </mxGeometry>
        </mxCell>
        <mxCell id="XHL3a4u6kP5xgGt7L1TX-24" value="&amp;lt;&amp;lt;include&amp;gt;&amp;gt;" style="html=1;verticalAlign=bottom;labelBackgroundColor=none;endArrow=open;endFill=0;dashed=1;rounded=0;exitX=1;exitY=0.5;exitDx=0;exitDy=0;" parent="1" source="XHL3a4u6kP5xgGt7L1TX-2" target="XHL3a4u6kP5xgGt7L1TX-25" edge="1">
          <mxGeometry width="160" relative="1" as="geometry">
            <mxPoint x="510" y="640" as="sourcePoint" />
            <mxPoint x="1040" y="710" as="targetPoint" />
          </mxGeometry>
        </mxCell>
        <mxCell id="XHL3a4u6kP5xgGt7L1TX-25" value="S&#39;authentifier" style="ellipse;whiteSpace=wrap;html=1;" parent="1" vertex="1">
          <mxGeometry x="1050" y="675" width="140" height="70" as="geometry" />
        </mxCell>
        <mxCell id="XHL3a4u6kP5xgGt7L1TX-26" value="Voir classe" style="ellipse;whiteSpace=wrap;html=1;" parent="1" vertex="1">
          <mxGeometry x="240" y="1140" width="120" height="60" as="geometry" />
        </mxCell>
        <mxCell id="XHL3a4u6kP5xgGt7L1TX-27" value="" style="endArrow=none;html=1;rounded=0;" parent="1" source="XHL3a4u6kP5xgGt7L1TX-1" target="XHL3a4u6kP5xgGt7L1TX-26" edge="1">
          <mxGeometry width="50" height="50" relative="1" as="geometry">
            <mxPoint x="90.00000000000023" y="540" as="sourcePoint" />
            <mxPoint x="293.02250624745875" y="946.0450124949177" as="targetPoint" />
          </mxGeometry>
        </mxCell>
        <mxCell id="XHL3a4u6kP5xgGt7L1TX-28" value="" style="endArrow=none;html=1;rounded=0;" parent="1" source="XHL3a4u6kP5xgGt7L1TX-1" target="XHL3a4u6kP5xgGt7L1TX-15" edge="1">
          <mxGeometry width="50" height="50" relative="1" as="geometry">
            <mxPoint x="100.00000000000023" y="550" as="sourcePoint" />
            <mxPoint x="303.02250624745875" y="956.0450124949177" as="targetPoint" />
          </mxGeometry>
        </mxCell>
        <mxCell id="XHL3a4u6kP5xgGt7L1TX-29" value="" style="endArrow=none;html=1;rounded=0;" parent="1" source="XHL3a4u6kP5xgGt7L1TX-16" target="XHL3a4u6kP5xgGt7L1TX-1" edge="1">
          <mxGeometry width="50" height="50" relative="1" as="geometry">
            <mxPoint x="370" y="930" as="sourcePoint" />
            <mxPoint x="420" y="880" as="targetPoint" />
          </mxGeometry>
        </mxCell>
      </root>
    </mxGraphModel>
  </diagram>
</mxfile>
